PathFileType	4	(X/Y/Z)	 2.2Hz3min.trc
DataRate	CameraRate	NumFrames	NumMarkers	Units	OrigDataRate	OrigDataStartFrame	OrigNumFrames
200	200	9	43	m	200	876	1000
Frame#	Time	C7			LSH			RSH			MAN			RASI			LASI			HIPR			HIPL			RPSI			LPSI			COX			RTHI1			RTHI2			RTHI3			RTHI4			RLKN			RMKN			RSHA1			RSHA2			RSHA3			RSHA4			RLMAL			RMMAL			RHEEL			RMET5			RMET1			RTOE			LTHI1			LTHI2			LTHI3			LTHI4			LLKN			LMKN			LSHA1			LSHA2			LSHA3			LSHA4			LLMAL			LMMAL			LHEEL			LMET5			LMET1			LTOE			
		X1	Y1	Z1	X2	Y2	Z2	X3	Y3	Z3	X4	Y4	Z4	X5	Y5	Z5	X6	Y6	Z6	X7	Y7	Z7	X8	Y8	Z8	X9	Y9	Z9	X10	Y10	Z10	X11	Y11	Z11	X12	Y12	Z12	X13	Y13	Z13	X14	Y14	Z14	X15	Y15	Z15	X16	Y16	Z16	X17	Y17	Z17	X18	Y18	Z18	X19	Y19	Z19	X20	Y20	Z20	X21	Y21	Z21	X22	Y22	Z22	X23	Y23	Z23	X24	Y24	Z24	X25	Y25	Z25	X26	Y26	Z26	X27	Y27	Z27	X28	Y28	Z28	X29	Y29	Z29	X30	Y30	Z30	X31	Y31	Z31	X32	Y32	Z32	X33	Y33	Z33	X34	Y34	Z34	X35	Y35	Z35	X36	Y36	Z36	X37	Y37	Z37	X38	Y38	Z38	X39	Y39	Z39	X40	Y40	Z40	X41	Y41	Z41	X42	Y42	Z42	X43	Y43	Z43	
876	4.3800	-0.280981	1.589205	-0.594418	-0.237148	1.569598	-0.794142	-0.198618	1.535278	-0.394306	-0.149715	1.511540	-0.601104	-0.210172	1.063592	-0.489332	-0.206607	1.070612	-0.723429	-0.293598	1.120322	-0.442845	-0.288572	1.112775	-0.763908	-0.390092	1.106036	-0.558365	-0.381411	1.106105	-0.660323	-0.387841	1.104139	-0.608423	-0.286383	0.785543	-0.404923	-0.275291	0.726605	-0.401850	-0.211541	0.735192	-0.394496	-0.214351	0.796715	-0.396866	-0.254176	0.540035	-0.402640	-0.242214	0.523807	-0.533669	-0.349997	0.392264	-0.384727	-0.368307	0.353871	-0.390929	-0.310566	0.334453	-0.388587	-0.299330	0.372671	-0.387593	-0.411589	0.161940	-0.407645	-0.372737	0.158360	-0.494441	-0.468229	0.144373	-0.457726	-0.328023	0.056324	-0.380963	-0.279856	0.059945	-0.454590	-0.256334	0.047850	-0.443479	-0.267734	0.803251	-0.798765	-0.253623	0.743431	-0.800635	-0.189341	0.752358	-0.802265	-0.195848	0.811939	-0.801207	-0.229362	0.536145	-0.786689	-0.210786	0.526609	-0.660275	-0.323839	0.378965	-0.802907	-0.335671	0.335768	-0.797667	-0.284149	0.320809	-0.793077	-0.266568	0.357614	-0.797184	-0.368731	0.156321	-0.793242	-0.353398	0.157449	-0.700751	-0.440475	0.141047	-0.749428	-0.279229	0.061590	-0.800243	-0.250148	0.069220	-0.726853	-0.226178	0.053593	-0.730894	
877	4.3850	-0.280926	1.586440	-0.594562	-0.237070	1.566755	-0.794269	-0.198672	1.532518	-0.394371	-0.149688	1.508747	-0.601173	-0.210363	1.060754	-0.489264	-0.206579	1.067831	-0.723426	-0.294038	1.117549	-0.442922	-0.288609	1.110017	-0.763893	-0.390238	1.102988	-0.558490	-0.381489	1.103136	-0.660446	-0.388008	1.101141	-0.608555	-0.285792	0.782511	-0.405151	-0.274473	0.723611	-0.402081	-0.210768	0.732438	-0.394651	-0.213811	0.793951	-0.397012	-0.252724	0.537280	-0.403084	-0.240616	0.521179	-0.534129	-0.349658	0.390260	-0.385550	-0.368245	0.351986	-0.391790	-0.310634	0.332164	-0.389355	-0.299136	0.370315	-0.388308	-0.412980	0.160556	-0.408616	-0.374061	0.156557	-0.495355	-0.469593	0.143600	-0.458773	-0.330500	0.054439	-0.381397	-0.282298	0.056907	-0.455057	-0.258990	0.044586	-0.443859	-0.267147	0.800511	-0.798733	-0.252932	0.740716	-0.800599	-0.188659	0.749758	-0.802151	-0.195272	0.809326	-0.801090	-0.228488	0.533630	-0.786667	-0.210086	0.524043	-0.660228	-0.323429	0.376912	-0.803052	-0.335459	0.333768	-0.797869	-0.284010	0.318578	-0.793163	-0.266262	0.355290	-0.797189	-0.369561	0.154649	-0.793547	-0.354405	0.155437	-0.701000	-0.441449	0.139963	-0.749780	-0.280901	0.059277	-0.800845	-0.251808	0.066185	-0.727295	-0.228008	0.050371	-0.731296	
878	4.3900	-0.280870	1.583427	-0.594712	-0.236974	1.563671	-0.794371	-0.198707	1.529574	-0.394433	-0.149667	1.505713	-0.601242	-0.210561	1.057675	-0.489190	-0.206568	1.064800	-0.723431	-0.294475	1.114549	-0.443025	-0.288657	1.107027	-0.763871	-0.390384	1.099682	-0.558610	-0.381573	1.099915	-0.660568	-0.388182	1.097887	-0.608685	-0.285217	0.779200	-0.405354	-0.273660	0.720341	-0.402291	-0.210000	0.729413	-0.394815	-0.213289	0.790920	-0.397165	-0.251204	0.534257	-0.403550	-0.239002	0.518318	-0.534624	-0.349313	0.388024	-0.386411	-0.368171	0.349908	-0.392637	-0.310712	0.329643	-0.390132	-0.298936	0.367729	-0.389049	-0.414428	0.158982	-0.409567	-0.375512	0.154583	-0.496279	-0.470994	0.142581	-0.459791	-0.332970	0.052378	-0.381865	-0.284696	0.053981	-0.455589	-0.261555	0.041576	-0.444307	-0.266597	0.797498	-0.798666	-0.252272	0.737727	-0.800502	-0.188013	0.746872	-0.802013	-0.194735	0.806421	-0.800988	-0.227537	0.530861	-0.786641	-0.209419	0.521228	-0.660146	-0.322953	0.374620	-0.803203	-0.335197	0.331522	-0.798069	-0.283823	0.316104	-0.793228	-0.265901	0.352719	-0.797180	-0.370385	0.152760	-0.793866	-0.355399	0.153244	-0.701225	-0.442407	0.138701	-0.750156	-0.282664	0.056596	-0.801393	-0.253624	0.062867	-0.727504	-0.229977	0.046977	-0.731359	
879	4.3950	-0.280819	1.580162	-0.594859	-0.236923	1.560350	-0.794507	-0.198741	1.526412	-0.394492	-0.149647	1.502438	-0.601311	-0.210757	1.054358	-0.489112	-0.206567	1.061528	-0.723443	-0.294903	1.111308	-0.443151	-0.288706	1.103802	-0.763849	-0.390532	1.096124	-0.558723	-0.381660	1.096446	-0.660683	-0.388362	1.094380	-0.608810	-0.284676	0.775608	-0.405522	-0.272865	0.716796	-0.402472	-0.209248	0.726120	-0.394992	-0.212794	0.787618	-0.397327	-0.249647	0.530976	-0.404042	-0.237394	0.515224	-0.535140	-0.348973	0.385563	-0.387304	-0.368122	0.347624	-0.393462	-0.310812	0.326899	-0.390904	-0.298745	0.364910	-0.389802	-0.415950	0.157237	-0.410498	-0.377062	0.152447	-0.497203	-0.472426	0.141218	-0.460763	-0.335294	0.050220	-0.382356	-0.286887	0.051340	-0.456169	-0.263841	0.039027	-0.444818	-0.266088	0.794197	-0.798570	-0.251649	0.734457	-0.800352	-0.187408	0.743698	-0.801865	-0.194240	0.803234	-0.800902	-0.226516	0.527824	-0.786608	-0.208773	0.518177	-0.660052	-0.322427	0.372081	-0.803376	-0.334898	0.329034	-0.798274	-0.283602	0.313387	-0.793284	-0.265502	0.349887	-0.797178	-0.371222	0.150629	-0.794196	-0.356406	0.150795	-0.701490	-0.443352	0.137194	-0.750554	-0.284434	0.053628	-0.801832	-0.255541	0.059454	-0.727447	-0.231997	0.043653	-0.731073	
880	4.4000	-0.280786	1.576651	-0.594996	-0.236845	1.556792	-0.794618	-0.198792	1.523026	-0.394545	-0.149627	1.498920	-0.601380	-0.210944	1.050804	-0.489032	-0.206571	1.058017	-0.723462	-0.295305	1.107822	-0.443292	-0.288756	1.100324	-0.763833	-0.390682	1.092304	-0.558827	-0.381755	1.092730	-0.660793	-0.388548	1.090619	-0.608931	-0.284176	0.771741	-0.405651	-0.272107	0.712976	-0.402628	-0.208530	0.722562	-0.395185	-0.212338	0.784049	-0.397496	-0.248073	0.527433	-0.404541	-0.235803	0.511899	-0.535672	-0.348656	0.382866	-0.388219	-0.368108	0.345132	-0.394248	-0.310963	0.323938	-0.391665	-0.298577	0.361851	-0.390566	-0.417537	0.155289	-0.411384	-0.378694	0.150155	-0.498125	-0.473888	0.139406	-0.461702	-0.337313	0.048091	-0.382836	-0.288730	0.049171	-0.456760	-0.265703	0.037145	-0.445363	-0.265621	0.790614	-0.798454	-0.251078	0.730893	-0.800150	-0.186846	0.740246	-0.801711	-0.193791	0.799770	-0.800832	-0.225423	0.524536	-0.786585	-0.208133	0.514878	-0.659946	-0.321884	0.369299	-0.803589	-0.334586	0.326303	-0.798505	-0.283378	0.310421	-0.793344	-0.265085	0.346807	-0.797206	-0.372091	0.148247	-0.794531	-0.357491	0.148152	-0.701773	-0.444303	0.135346	-0.750975	-0.286068	0.050491	-0.802109	-0.257435	0.056166	-0.727123	-0.233913	0.040663	-0.730435	
881	4.4050	-0.280751	1.572890	-0.595130	-0.236767	1.552999	-0.794745	-0.198850	1.519405	-0.394602	-0.149606	1.495159	-0.601451	-0.211116	1.047022	-0.488951	-0.206577	1.054285	-0.723489	-0.295670	1.104082	-0.443436	-0.288812	1.096592	-0.763829	-0.390841	1.088235	-0.558923	-0.381859	1.088773	-0.660893	-0.388749	1.086616	-0.609054	-0.283719	0.767613	-0.405753	-0.271398	0.708904	-0.402775	-0.207853	0.718749	-0.395395	-0.211930	0.780223	-0.397665	-0.246505	0.523620	-0.405037	-0.234258	0.508347	-0.536198	-0.348363	0.379938	-0.389136	-0.368149	0.342432	-0.394999	-0.311180	0.320759	-0.392411	-0.298445	0.358548	-0.391331	-0.419141	0.153101	-0.412255	-0.380358	0.147743	-0.499042	-0.475397	0.137054	-0.462627	-0.338904	0.046106	-0.383253	-0.290068	0.047551	-0.457268	-0.266972	0.035897	-0.445851	-0.265205	0.786757	-0.798320	-0.250554	0.727058	-0.799916	-0.186340	0.736522	-0.801547	-0.193396	0.796039	-0.800776	-0.224277	0.520996	-0.786570	-0.207477	0.511341	-0.659851	-0.321359	0.366278	-0.803858	-0.334291	0.323336	-0.798771	-0.283183	0.307212	-0.793420	-0.264692	0.343479	-0.797271	-0.373020	0.145618	-0.794862	-0.358683	0.145359	-0.702108	-0.445309	0.133064	-0.751423	-0.287438	0.047354	-0.802250	-0.259149	0.053232	-0.726628	-0.235567	0.038252	-0.729592	
882	4.4100	-0.280722	1.568913	-0.595268	-0.236695	1.548981	-0.794905	-0.198902	1.515552	-0.394659	-0.149577	1.491166	-0.601526	-0.211272	1.043019	-0.488866	-0.206585	1.050331	-0.723524	-0.295987	1.100095	-0.443562	-0.288862	1.092603	-0.763845	-0.391016	1.083921	-0.559002	-0.381974	1.084587	-0.660979	-0.388970	1.082373	-0.609176	-0.283308	0.763255	-0.405841	-0.270739	0.704593	-0.402933	-0.207228	0.714692	-0.395608	-0.211567	0.776154	-0.397823	-0.244959	0.519541	-0.405507	-0.232765	0.504571	-0.536692	-0.348088	0.376797	-0.390008	-0.368267	0.339525	-0.395732	-0.311468	0.317349	-0.393139	-0.298364	0.355002	-0.392084	-0.420709	0.150662	-0.413082	-0.382022	0.145224	-0.499947	-0.476997	0.134138	-0.463529	-0.339993	0.044423	-0.383547	-0.290850	0.046468	-0.457592	-0.267636	0.035192	-0.446247	-0.264843	0.782644	-0.798177	-0.250072	0.722969	-0.799661	-0.185886	0.732543	-0.801388	-0.193059	0.792050	-0.800736	-0.223097	0.517220	-0.786571	-0.206803	0.507557	-0.659779	-0.320895	0.363036	-0.804178	-0.334061	0.320145	-0.799067	-0.283043	0.303785	-0.793517	-0.264359	0.339932	-0.797370	-0.374049	0.142755	-0.795183	-0.359943	0.142403	-0.702393	-0.446444	0.130315	-0.751908	-0.288441	0.044454	-0.802478	-0.260563	0.050826	-0.726173	-0.236848	0.036503	-0.728789	
883	4.4150	-0.280703	1.564695	-0.595395	-0.236661	1.544741	-0.795117	-0.198953	1.511466	-0.394720	-0.149530	1.486953	-0.601600	-0.211411	1.038802	-0.488781	-0.206593	1.046173	-0.723565	-0.296249	1.095864	-0.443656	-0.288912	1.088357	-0.763894	-0.391217	1.079390	-0.559064	-0.382106	1.080194	-0.661052	-0.389209	1.077914	-0.609278	-0.282935	0.758687	-0.405941	-0.270125	0.700073	-0.403117	-0.206646	0.710427	-0.395817	-0.211245	0.771866	-0.397954	-0.243449	0.515212	-0.405948	-0.231335	0.500581	-0.537135	-0.347841	0.373440	-0.390838	-0.368470	0.336389	-0.396458	-0.311832	0.313723	-0.393844	-0.298334	0.351208	-0.392813	-0.422181	0.148021	-0.413849	-0.383655	0.142593	-0.500833	-0.478686	0.130728	-0.464421	-0.340636	0.043065	-0.383690	-0.291203	0.045811	-0.457739	-0.267842	0.034884	-0.446544	-0.264535	0.778282	-0.798024	-0.249649	0.718625	-0.799399	-0.185487	0.728329	-0.801256	-0.192775	0.787829	-0.800721	-0.221920	0.513210	-0.786586	-0.206104	0.503539	-0.659742	-0.320520	0.359605	-0.804529	-0.333924	0.316780	-0.799386	-0.283009	0.300159	-0.793603	-0.264122	0.336183	-0.797479	-0.375211	0.139707	-0.795492	-0.361363	0.139340	-0.702678	-0.447777	0.127154	-0.752419	-0.289070	0.042085	-0.802958	-0.261606	0.048994	-0.725914	-0.237724	0.035351	-0.728175	
884	4.4200	-0.280687	1.560279	-0.595532	-0.236574	1.540289	-0.795323	-0.199012	1.507132	-0.394782	-0.149460	1.482533	-0.601677	-0.211534	1.034385	-0.488694	-0.206608	1.041823	-0.723612	-0.296454	1.091397	-0.443706	-0.288970	1.083866	-0.763986	-0.391448	1.074650	-0.559099	-0.382261	1.075608	-0.661110	-0.389471	1.073255	-0.609359	-0.282584	0.753945	-0.406084	-0.269546	0.695375	-0.403343	-0.206106	0.705977	-0.395997	-0.210955	0.767396	-0.398044	-0.241983	0.510649	-0.406348	-0.229945	0.496387	-0.537514	-0.347630	0.369876	-0.391627	-0.368701	0.333050	-0.397175	-0.312265	0.309896	-0.394526	-0.298360	0.347188	-0.393515	-0.423451	0.145188	-0.414499	-0.385265	0.139866	-0.501700	-0.480461	0.126993	-0.465300	-0.341010	0.041966	-0.383672	-0.291302	0.045445	-0.457740	-0.267794	0.034828	-0.446736	-0.264277	0.773701	-0.797869	-0.249275	0.714058	-0.799146	-0.185137	0.723903	-0.801172	-0.192543	0.783389	-0.800742	-0.220757	0.508997	-0.786633	-0.205377	0.499297	-0.659752	-0.320255	0.356038	-0.804882	-0.333913	0.313288	-0.799711	-0.283124	0.296384	-0.793660	-0.264010	0.332286	-0.797567	-0.376551	0.136571	-0.795789	-0.362952	0.136221	-0.702908	-0.449357	0.123712	-0.752970	-0.289459	0.040180	-0.803657	-0.262307	0.047699	-0.725916	-0.238252	0.034671	-0.727775	
